<?xml version="1.0" encoding="utf-8"?>
<!-- Generator: Adobe Illustrator 22.1.0, SVG Export Plug-In . SVG Version: 6.00 Build 0)  -->
<svg version="1.1" id="Layer_1" xmlns="http://www.w3.org/2000/svg" xmlns:xlink="http://www.w3.org/1999/xlink" x="0px" y="0px"
	 viewBox="0 0 485 485" style="enable-background:new 0 0 485 485;" xml:space="preserve">
<style type="text/css">
	.st0{fill:#FFFFFF;}
</style>
<g>
	<path class="st0" d="M414,71C368.2,25.2,307.3,0,242.5,0S116.8,25.2,71,71S0,177.7,0,242.5c0,46.5,13.1,91.4,38,130.4L0.9,484.1
		L112.1,447c38.9,24.9,83.9,38,130.4,38c64.8,0,125.7-25.2,171.5-71c45.8-45.8,71-106.7,71-171.5S459.8,116.8,414,71z M242.5,455
		c-43,0-84.4-12.8-119.7-36.9l-6.1-4.2l-68.2,22.7l22.7-68.2l-4.2-6.1C42.8,326.9,30,285.5,30,242.5C30,125.3,125.3,30,242.5,30
		S455,125.3,455,242.5S359.7,455,242.5,455z"/>
	<g>
		<rect x="159" y="192.5" class="st0" width="174.6" height="30"/>
		<rect x="159" y="262.5" class="st0" width="112.2" height="30"/>
	</g>
</g>
</svg>
