<svg xmlns="http://www.w3.org/2000/svg" viewBox="-3 4 24.1 24.1" id="link" width="100%" height="100%"><title>Shape</title><path d="M8.3 22.3l-3.2 3c-.6.6-1.1 1-1.9 1.1-1.3.3-2.5-.1-3.4-1-.8-.8-1.1-1.7-1.1-2.8 0-1 .4-2.1 1.1-2.8l5.1-5.2c1-1 2.3-1.4 3.7-1 .4.1.8.3 1.1.5.5.3.9.6 1.1 1.1.3.4.7.4 1 .1.3-.2.4-.6.1-.9-.4-.6-1-1.2-1.6-1.6-.4-.3-.9-.5-1.4-.6-1.9-.5-3.7.1-5 1.4l-5.4 5.5c-2 2.1-2 5.4 0 7.4 1 1 2.3 1.6 3.7 1.6s2.7-.5 3.7-1.6L9 23.3c1-.8-.2-1.7-.7-1zM19.6 5.6c-1-1-2.3-1.6-3.7-1.6s-2.7.5-3.7 1.6L9.1 8.8c-.8.8.4 1.7.9 1l3.2-3c.6-.6 1.1-1 1.9-1.1 1.3-.3 2.5.1 3.4 1 .8.8 1.1 1.7 1.1 2.8 0 1-.4 2.1-1.1 2.8l-5.1 5.2c-1 1-2.3 1.4-3.7 1-.4-.1-.8-.3-1.1-.5-.5-.3-.9-.7-1.1-1.1-.3-.4-.7-.4-1-.1-.3.2-.4.6-.1.9.4.6 1 1.2 1.6 1.6.4.3.9.5 1.4.6 1.9.5 3.7-.1 5-1.4l5.4-5.5c1.8-2.1 1.8-5.4-.2-7.4z"></path></svg>