<svg xmlns="http://www.w3.org/2000/svg" viewBox="0 0 24.126 24.1">
  <defs>
    <style>
      .cls-1 {
        fill: #fe6d3f;
      }
    </style>
  </defs>
  <g id="icon-link_copy" data-name="icon-link copy" transform="translate(0)">
    <path id="Shape" class="cls-1" d="M5.2,24.1a5.238,5.238,0,0,1-3.7-1.6A5.136,5.136,0,0,1,0,18.838,5.4,5.4,0,0,1,1.5,15.1L6.9,9.6a5.184,5.184,0,0,1,3.668-1.576A5.242,5.242,0,0,1,11.9,8.2a3.472,3.472,0,0,1,1.4.6,6.082,6.082,0,0,1,1.6,1.6.56.56,0,0,1,.178.458.61.61,0,0,1-.279.442.657.657,0,0,1-.462.214A.683.683,0,0,1,13.8,11.2a2.326,2.326,0,0,0-1.1-1.1,3.692,3.692,0,0,0-1.1-.5,3.866,3.866,0,0,0-1.062-.154A3.694,3.694,0,0,0,7.9,10.6L2.8,15.8a4.072,4.072,0,0,0-1.1,2.8,3.667,3.667,0,0,0,1.1,2.8,3.564,3.564,0,0,0,2.554,1.1,3.777,3.777,0,0,0,.846-.1,3.1,3.1,0,0,0,1.9-1.1l3.2-3a.565.565,0,0,1,.466-.251.639.639,0,0,1,.589.413A.769.769,0,0,1,12,19.3L8.9,22.5A4.863,4.863,0,0,1,5.2,24.1Zm8.532-8.025h0A5.244,5.244,0,0,1,12.4,15.9a3.482,3.482,0,0,1-1.4-.6,6.082,6.082,0,0,1-1.6-1.6.567.567,0,0,1-.178-.459A.608.608,0,0,1,9.5,12.8a.657.657,0,0,1,.462-.214.683.683,0,0,1,.538.314A2.9,2.9,0,0,0,11.6,14a3.692,3.692,0,0,0,1.1.5,3.866,3.866,0,0,0,1.062.154A3.694,3.694,0,0,0,16.4,13.5l5.1-5.2a4.075,4.075,0,0,0,1.1-2.8,3.667,3.667,0,0,0-1.1-2.8,3.564,3.564,0,0,0-2.554-1.1,3.776,3.776,0,0,0-.846.1,3.1,3.1,0,0,0-1.9,1.1L13,5.8a.559.559,0,0,1-.469.252.735.735,0,0,1-.649-.444A.71.71,0,0,1,12.1,4.8l3.1-3.2A4.863,4.863,0,0,1,18.9,0a5.238,5.238,0,0,1,3.7,1.6,5.279,5.279,0,0,1,1.525,3.662A5.568,5.568,0,0,1,22.8,9l-5.4,5.5A5.183,5.183,0,0,1,13.732,16.076Z"/>
  </g>
</svg>
