<?xml version="1.0" encoding="utf-8"?>
<!-- Generator: Adobe Illustrator 22.1.0, SVG Export Plug-In . SVG Version: 6.00 Build 0)  -->
<svg version="1.1" id="Layer_1" xmlns="http://www.w3.org/2000/svg" xmlns:xlink="http://www.w3.org/1999/xlink" x="0px" y="0px"
	 viewBox="0 0 277.8 277.8" style="enable-background:new 0 0 277.8 277.8;" xml:space="preserve">
<style type="text/css">
	.st0{fill:#FFFFFF;}
</style>
<path class="st0" d="M138.9,0C62.2,0,0,62.2,0,138.9c0,29,8.9,56,24.1,78.3L5.9,271.9l54.7-18.2c22.3,15.2,49.2,24.1,78.3,24.1
	c76.7,0,138.9-62.2,138.9-138.9S215.6,0,138.9,0z M86,154.9c-8.8,0-16-7.2-16-16s7.2-16,16-16s16,7.2,16,16S94.9,154.9,86,154.9z
	 M138.9,154.9c-8.8,0-16-7.2-16-16s7.2-16,16-16s16,7.2,16,16S147.8,154.9,138.9,154.9z M191.8,154.9c-8.8,0-16-7.2-16-16
	s7.2-16,16-16s16,7.2,16,16S200.7,154.9,191.8,154.9z"/>
</svg>
