<?xml version="1.0" encoding="utf-8"?>
<!-- Generator: Adobe Illustrator 22.1.0, SVG Export Plug-In . SVG Version: 6.00 Build 0)  -->
<svg version="1.1" id="Vrstva_1" xmlns="http://www.w3.org/2000/svg" xmlns:xlink="http://www.w3.org/1999/xlink" x="0px" y="0px"
	 viewBox="0 0 1416.6 734.9" style="enable-background:new 0 0 1416.6 734.9;" xml:space="preserve">
<style type="text/css">
	.st0{fill:#FFFFFF;}
</style>
<g>
	<path class="st0" d="M970.8,526.3l38-96.1h109.7l-52.1-145.7l65.1-164.6L1318,615h-137.5l-31.9-88.7H970.8z"/>
	<path class="st0" d="M853.5,615l199.6-495.1l-132.3,0L784.2,439.9l-97.1-319.9H585.4L481.2,439.9l-73.5-145.8l-66.5,205L408.6,615
		h130.2l94.2-286.9L722.9,615H853.5z"/>
	<path class="st0" d="M128.7,445.1h81.5c24.7,0,46.7-2.8,66-8.3l21.1-64.9l58.9-181.5c-4.5-7.1-9.6-13.8-15.4-20.2
		c-30.2-33.5-74.5-50.2-132.8-50.2H3.1V615h125.6V445.1z M236.6,233.8c11.8,11.9,17.7,27.8,17.7,47.7c0,20.1-5.2,36-15.6,47.8
		c-11.4,13.1-32.4,19.6-62.9,19.6h-47.1V216h47.5C204.6,216,224.7,221.9,236.6,233.8z"/>
</g>
</svg>
