<?xml version="1.0" encoding="utf-8"?>
<!-- Generator: Adobe Illustrator 22.1.0, SVG Export Plug-In . SVG Version: 6.00 Build 0)  -->
<svg version="1.1" id="Layer_1" xmlns="http://www.w3.org/2000/svg" xmlns:xlink="http://www.w3.org/1999/xlink" x="0px" y="0px"
	 viewBox="0 0 23 20.5" style="enable-background:new 0 0 23 20.5;" xml:space="preserve">
<style type="text/css">
	.st0{fill:#FFFFFF;}
</style>
<title>logo</title>
<path class="st0" d="M18.9,6.6L18.9,6.6c-0.2-0.1-0.5-0.2-0.7-0.2c0-0.2,0.1-0.3,0.1-0.5c0.6-2.7,0.2-4.9-1.1-5.6
	c-1.2-0.7-3.2,0-5.1,1.8c-0.2,0.2-0.4,0.3-0.6,0.5c-0.1-0.1-0.3-0.2-0.4-0.4C9.1,0.3,7-0.4,5.7,0.3C4.5,1,4.2,3,4.7,5.6
	c0.1,0.3,0.1,0.5,0.2,0.8C4.5,6.5,4.3,6.6,4,6.7c-2.4,0.8-4,2.2-4,3.6c0,1.4,1.7,2.9,4.2,3.7c0.2,0.1,0.4,0.1,0.6,0.2
	c-0.1,0.3-0.1,0.5-0.2,0.8c-0.5,2.5-0.1,4.5,1.1,5.2c1.2,0.7,3.3,0,5.3-1.8c0.2-0.1,0.3-0.3,0.5-0.4c0.2,0.2,0.4,0.4,0.6,0.6
	c2,1.7,3.9,2.4,5.1,1.7c1.2-0.7,1.6-2.9,1.1-5.5c0-0.2-0.1-0.4-0.1-0.6c0.1,0,0.3-0.1,0.4-0.1c2.6-0.9,4.4-2.3,4.4-3.7
	C23,8.8,21.4,7.5,18.9,6.6z M12.7,2.8c1.7-1.5,3.3-2.1,4-1.6l0,0c0.8,0.4,1.1,2.2,0.6,4.6c0,0.2-0.1,0.3-0.1,0.5
	c-1-0.2-2-0.4-3.1-0.5c-0.6-0.9-1.2-1.7-1.9-2.4C12.4,3.1,12.5,2.9,12.7,2.8z M6.8,11.4c0.2,0.4,0.4,0.8,0.7,1.2
	c0.2,0.4,0.5,0.8,0.7,1.2c-0.7-0.1-1.4-0.2-2.1-0.3C6.2,12.8,6.5,12.1,6.8,11.4z M6.8,9.1c-0.3-0.7-0.5-1.3-0.7-2
	c0.7-0.1,1.4-0.3,2.1-0.4C7.9,7.1,7.7,7.5,7.4,7.9C7.2,8.3,7,8.7,6.8,9.1z M7.3,10.2c0.3-0.6,0.6-1.2,1-1.9v0C8.6,7.8,9,7.2,9.4,6.6
	c0.7-0.1,1.4-0.1,2.1-0.1c0.7,0,1.4,0,2.1,0.1c0.4,0.6,0.8,1.2,1.1,1.8c0.4,0.6,0.7,1.2,1,1.8c-0.3,0.6-0.6,1.3-1,1.9h0
	c-0.3,0.6-0.7,1.2-1.1,1.8c-0.7,0-1.4,0.1-2.1,0.1c-0.7,0-1.4,0-2.1-0.1c-0.4-0.6-0.8-1.2-1.1-1.8C7.9,11.5,7.6,10.9,7.3,10.2z
	 M15.6,12.6c0.2-0.4,0.5-0.8,0.7-1.2l0,0c0.3,0.7,0.6,1.3,0.8,2c-0.7,0.2-1.4,0.3-2.1,0.4C15.1,13.4,15.3,13,15.6,12.6L15.6,12.6z
	 M16.2,9.1c-0.2-0.4-0.4-0.8-0.7-1.2l0,0c-0.2-0.4-0.5-0.8-0.7-1.2c0.7,0.1,1.4,0.2,2.1,0.4C16.7,7.8,16.5,8.4,16.2,9.1z M11.5,3.9
	C12,4.5,12.4,5,12.9,5.6c-0.9,0-1.8,0-2.7,0C10.6,5,11.1,4.4,11.5,3.9z M6.2,1.1C7,0.7,8.7,1.3,10.5,2.9c0.1,0.1,0.2,0.2,0.3,0.3
	c-0.7,0.8-1.4,1.6-2,2.4c-1,0.1-2.1,0.3-3.1,0.5C5.7,5.9,5.7,5.7,5.6,5.4v0C5.2,3.2,5.5,1.6,6.2,1.1z M5.1,13.2
	c-0.2-0.1-0.4-0.1-0.6-0.2c-1-0.3-1.9-0.8-2.7-1.4c-0.5-0.3-0.8-0.8-0.9-1.4c0-0.8,1.2-1.9,3.3-2.6c0.3-0.1,0.5-0.2,0.8-0.2
	c0.3,1,0.7,2,1.1,2.9C5.8,11.2,5.4,12.2,5.1,13.2z M10.4,17.7c-0.8,0.7-1.6,1.2-2.6,1.6h0c-0.5,0.2-1.1,0.3-1.6,0.1
	c-0.7-0.4-1-2-0.6-4.2c0-0.3,0.1-0.5,0.2-0.8c1,0.2,2.1,0.4,3.1,0.4c0.6,0.9,1.3,1.7,2,2.4C10.7,17.4,10.6,17.5,10.4,17.7z
	 M11.5,16.6c-0.5-0.5-0.9-1.1-1.4-1.7c0.4,0,0.9,0,1.3,0c0.5,0,0.9,0,1.4,0C12.5,15.5,12,16,11.5,16.6L11.5,16.6z M17.5,17.9
	c0,0.6-0.3,1.1-0.8,1.4c-0.7,0.4-2.3-0.1-3.9-1.6c-0.2-0.2-0.4-0.3-0.6-0.5c0.7-0.8,1.3-1.6,1.9-2.4c1-0.1,2.1-0.2,3.1-0.5
	c0,0.2,0.1,0.4,0.1,0.6l0,0C17.6,15.9,17.7,16.9,17.5,17.9L17.5,17.9z M18.3,13L18.3,13c-0.1,0-0.3,0.1-0.4,0.1
	c-0.3-1-0.7-2-1.2-2.9c0.4-0.9,0.8-1.9,1.1-2.9c0.2,0.1,0.5,0.1,0.7,0.2c2.1,0.7,3.4,1.8,3.4,2.7C22,11.1,20.6,12.3,18.3,13L18.3,13
	z"/>
<path class="st0" d="M11.5,8.2c1.1,0,2.1,0.9,2.1,2.1c0,1.1-0.9,2.1-2.1,2.1c-1.1,0-2.1-0.9-2.1-2.1c0,0,0,0,0,0
	C9.4,9.1,10.4,8.2,11.5,8.2C11.5,8.2,11.5,8.2,11.5,8.2"/>
</svg>
