<?xml version="1.0" encoding="utf-8"?>
<!-- Generator: Adobe Illustrator 22.1.0, SVG Export Plug-In . SVG Version: 6.00 Build 0)  -->
<svg version="1.1" id="Vrstva_1" xmlns="http://www.w3.org/2000/svg" xmlns:xlink="http://www.w3.org/1999/xlink" x="0px" y="0px"
	 viewBox="0 0 899.9 212.6" style="enable-background:new 0 0 899.9 212.6;" xml:space="preserve">
<style type="text/css">
	.st0{fill-rule:evenodd;clip-rule:evenodd;fill:#FFFFFF;}
</style>
<g>
	<g>
		<path class="st0" d="M254.3,82.5c-5.1,1.8-8.2,6.7-10.8,11.1c-5.7,10.1-7.2,23.1-2,33.8c1.4,2.9,3.9,5.9,7.4,6.1
			c3.8,0.1,7.1-2.3,9.8-4.8c5.8-5.7,8.4-13.8,9.3-21.7c1-7.4-0.3-15.3-4.6-21.5C261.5,82.6,257.6,81.3,254.3,82.5z"/>
		<path class="st0" d="M176.3,82.5c-4.7,1.5-7.6,5.8-10.1,9.8c-6.3,10.1-8.1,23.5-3.1,34.5c1.3,2.9,3.5,5.9,6.8,6.6
			c3.6,0.6,6.9-1.5,9.5-3.7c5.8-4.9,8.6-12.3,10-19.6c1.6-8.3,0.8-17.5-4.1-24.5C183.4,82.6,179.6,81.3,176.3,82.5z"/>
		<path class="st0" d="M304.9,60c0.2-8.1-3.3-16.2-9.3-21.6c-5.3-4.9-12.5-7.5-19.6-7.4c-82.7,0-165.3,0-248,0
			c-11,0-21.5,7.1-25.7,17.2C0.3,52.6-0.1,57.3,0,62c0.1,31-0.1,62.1,0.1,93.1c0.1,14.3,12.5,27.1,26.8,27.5
			c39.7,0.2,79.4-0.1,119,0.2c18.1,9.7,35.8,19.9,53.8,29.8c-4.1-10-8.2-20-12.2-29.9c30.1,0,60.3,0.1,90.5-0.1
			c14.3-0.4,26.8-13.2,26.9-27.5C305,123.4,304.9,91.7,304.9,60z M124.8,157c0.3,4.6-2,10.3-7,11.3c-4.7,1-9-2-11.9-5.4
			c-13.5-14.5-21.1-33.3-26.6-52.1c-5.6,11-11.2,22-16.6,33.1C59,151.4,55,159.1,48.9,165c-2.5,2.5-6.9,4.8-10.1,2.2
			c-4.9-4.3-6.2-11.2-8.3-17.2c-8-27.5-12.5-55.8-17.1-84c-1.1-4.7,0.9-10.3,5.6-12.2c3.8-1.4,8.6-1.6,11.9,1.2c2.3,2,2.9,5.1,3.3,8
			c3.3,21.8,7.1,43.6,12.4,65c9-17.1,18-34.3,27-51.4c1.3-2.5,2.9-5,5.4-6.6c3.3-2.1,8.2-2,10.9,1c2.3,2.4,3.1,5.8,3.7,9
			c2.7,14.2,6.3,28.2,11.6,41.6c2.3-20.2,5.1-40.7,12.5-59.8c1.7-3.8,3.1-7.9,5.8-11.2c4.6-4.9,13.3-3.3,16.6,2.2
			c1.8,2.9,2,6.8,0.5,9.8c-6.4,12.5-9,26.5-11.5,40.2C126.3,120.7,123.9,138.9,124.8,157z M203.1,133.1c-3.7,6.9-8.6,13.6-15.5,17.7
			c-10.1,6.1-23.6,5.4-33.3-1.1c-7.8-5.3-12.2-14.4-13.9-23.5c-3.6-20.5,2.5-43.3,18-57.6c4.5-3.8,10-6.4,15.9-7.2
			c9.7-1.2,20.2,2,26.8,9.4c5.4,6.1,8.4,14,9.4,22.1C212.2,106.6,209.7,120.9,203.1,133.1z M281.5,132.7c-3.8,7.1-8.8,14-15.8,18.1
			c-9.7,5.8-22.5,5.3-32-0.5c-6.5-3.9-10.8-10.6-13.3-17.6c-6.8-21.4-1.1-46.6,14.6-62.8c4.7-4.6,10.8-7.8,17.3-8.6
			c9.5-1.2,19.8,1.8,26.5,8.8c6,6.4,9.2,15,10.1,23.6C290.2,107.2,287.8,120.9,281.5,132.7z"/>
	</g>
	<path class="st0" d="M356.3,64.3c8.3-1.8,17-1.6,25.3,0.3c0,6.8,0,13.5,0,20.3c-6.8-1.6-14.3-3.2-20.9,0
		c-7.8,3.8-12.1,12.7-12.2,21.2c-0.4,8.5,2.4,17.9,9.9,22.7c6.9,4.6,15.7,3.6,23.3,1.4c0,6.7,0,13.5,0,20.2
		c-10,2.9-20.9,2.5-30.7-1.1c-11.7-4.4-21.1-14.5-24.6-26.5c-2.7-9.1-3.1-19-0.9-28.2C328.9,79.7,341.4,67.6,356.3,64.3L356.3,64.3z
		 M417.2,63.3c10.2-1.1,21.3,0.4,29.5,7c8,6.2,11.9,16.1,13.3,25.8c1.4,10.6,1.1,21.7-2.2,32c-2.8,8.7-8.7,16.8-17.1,20.8
		c-8.6,4-18.6,4.3-27.7,2.3c-8.5-1.9-15.9-7.5-20.1-15.1c-5.8-10.2-6.9-22.3-6.4-33.8c0.5-9.9,3-20.3,9.7-28
		C401.4,68,409.1,64.2,417.2,63.3L417.2,63.3z M420.3,82.6c-4.4,1.1-6.9,5.4-8,9.5c-2.2,8-1.8,16.5-1.3,24.8c0.5,4.4,1,9.4,4.2,12.8
		c4.2,4.8,12.7,4.1,16.5-0.8c2.6-3.1,3.2-7.3,3.8-11.2c0.8-6.9,1-14,0-20.9c-0.7-4.1-1.9-8.5-4.9-11.6
		C428,82.5,423.9,81.7,420.3,82.6L420.3,82.6z M820.4,64.6c8.7-2.3,17.8-1.9,26.5-0.1c0.2,6.8,0,13.5,0.1,20.3
		c-6.6-1.6-13.9-3.1-20.4-0.2C819.1,88,814.6,96,814,104c-0.9,9,1.5,19.3,9.4,24.5c6.9,4.8,15.9,3.8,23.5,1.6
		c-0.1,6.8,0.2,13.6-0.2,20.4c-10.7,2.8-22.3,2.4-32.4-2c-11.2-4.9-19.8-14.9-23-26.7c-2.5-9-2.7-18.7-0.5-27.8
		C794.5,79.9,806.3,68.3,820.4,64.6L820.4,64.6z M473.5,65.3c9.6,0,19.3,0,28.9,0c3.5,15.6,6.8,31.3,9.7,47.1
		c2.8-15.8,6.5-31.5,10.2-47.1c9.9,0,19.8,0,29.7,0c3.8,28.3,7.7,56.6,11.5,84.9c-7.6,0-15.1,0-22.7,0c-2.1-19.4-4-38.8-6.2-58.2
		c-4.6,19.4-9.4,38.8-14.1,58.2c-5.2,0-10.3,0-15.5,0c-4.9-19.4-9.8-38.9-14.8-58.3c-1.9,19.4-3.9,38.9-5.8,58.3
		c-7.2,0-14.5,0-21.7,0C466.2,121.9,469.9,93.6,473.5,65.3L473.5,65.3z M577.3,65.3c9.6,0,19.3,0,29,0c3.5,15.6,6.8,31.3,9.7,47
		c2.8-15.8,6.5-31.4,10.2-47c9.9,0,19.7,0,29.6,0c3.8,28.3,7.7,56.6,11.5,84.9c-7.6,0-15.1,0-22.7,0c-2.1-19.4-4.1-38.8-6.1-58.2
		c-4.7,19.4-9.3,38.8-14.1,58.2c-5.2,0-10.3,0-15.5,0c-4.9-19.4-9.9-38.9-14.8-58.3c-2,19.4-3.9,38.9-5.9,58.3c-7.2,0-14.5,0-21.7,0
		C570,121.9,573.7,93.6,577.3,65.3L577.3,65.3z M673.6,65.5c15.5-0.3,31,0,46.5-0.1c0,6,0,12,0,18.1c-7.8,0.1-15.6,0-23.5,0
		c0,5.2,0,10.4,0,15.5c6.8,0,13.5,0,20.3,0c0,5.9,0,11.7,0,17.6c-6.8,0-13.5,0-20.3,0c0,5.2,0,10.4,0,15.5c7.8,0,15.7,0,23.6,0
		c0,6,0,12.1,0,18.1c-15.5,0-31,0-46.5,0C673.7,122.1,673.9,93.8,673.6,65.5L673.6,65.5z M726.8,65.3c9.7,0,19.4-0.1,29.1,0.1
		c9.1,0.3,18.8,2.6,25.7,9c6.2,5.7,8.3,15.1,5.9,23c-1.9,6.5-6.8,11.7-12.8,14.6c6.1,12.7,12.2,25.5,18.3,38.2c-8.1,0-16.1,0-24.2,0
		c-6.3-13-12.5-26.1-18.9-39.1c-0.2,13,0,26-0.1,39.1c-7.7,0-15.3,0-23,0C726.8,121.9,726.8,93.6,726.8,65.3L726.8,65.3z
		 M749.7,81.6c0,6.7,0,13.5,0,20.3c4.1-0.3,8.7-0.5,12.2-3c4.1-2.9,3.6-9.2,1.1-13C759.7,82,754.2,82,749.7,81.6L749.7,81.6z
		 M853.4,65.3c15.5,0,30.9,0,46.4,0c0,6,0,12.1,0,18.1c-7.8,0-15.7,0-23.5,0c0,5.2,0,10.3,0,15.5c6.8,0,13.5,0,20.3,0
		c0,5.9,0,11.8,0,17.6c-6.8,0-13.5,0-20.3,0c0,5.2,0,10.4,0,15.5c7.9,0,15.8,0,23.7,0c0,6,0,12.1,0,18.1c-15.5,0-31,0-46.5,0
		C853.4,121.9,853.4,93.6,853.4,65.3L853.4,65.3z"/>
</g>
</svg>
