<?xml version="1.0" encoding="utf-8"?>
<!-- Generator: Adobe Illustrator 22.1.0, SVG Export Plug-In . SVG Version: 6.00 Build 0)  -->
<svg version="1.1" id="Layer_1" xmlns="http://www.w3.org/2000/svg" xmlns:xlink="http://www.w3.org/1999/xlink" x="0px" y="0px"
	 viewBox="0 0 155.9 35.3" style="enable-background:new 0 0 155.9 35.3;" xml:space="preserve">
<style type="text/css">
	.Arched_x0020_Green{fill:url(#SVGID_1_);stroke:#FFFFFF;stroke-width:0.25;stroke-miterlimit:1;}
	.st0{fill:#FFFFFF;}
</style>
<linearGradient id="SVGID_1_" gradientUnits="userSpaceOnUse" x1="-296.0996" y1="71.3232" x2="-295.3925" y2="70.6161">
	<stop  offset="0" style="stop-color:#20AC4B"/>
	<stop  offset="0.9831" style="stop-color:#19361A"/>
</linearGradient>
<path class="st0" d="M90.4,13.9h-6.1v0.7c1.9,0,2.2,0.4,2.2,2.8v4.4c0,2.4-0.3,2.9-2.2,2.9c-1.5-0.2-2.5-1-3.8-2.5l-1.6-1.7
	c2.1-0.4,3.3-1.7,3.3-3.2c0-1.9-1.6-3.3-4.6-3.3h-6v0.7c1.9,0,2.2,0.4,2.2,2.8v4.4c0,2.4-0.3,2.9-2.2,2.9v0.7h6.8v-0.7
	c-1.9,0-2.2-0.4-2.2-2.9v-1.2h0.6l3.8,4.8h10c4.9,0,7-2.6,7-5.7C97.4,16.5,95.3,13.9,90.4,13.9z M76,19.5v-4.6h1.4
	c1.5,0,2.2,1.1,2.2,2.3c0,1.2-0.7,2.3-2.2,2.3H76z M90.5,24.3h-0.2c-1.2,0-1.4-0.3-1.4-1.9v-7.4c0,0,1.5,0,1.6,0
	c3.6,0,4.2,2.6,4.2,4.6C94.7,21.7,94.1,24.3,90.5,24.3z"/>
<path class="st0" d="M2.5,17.7c0,6,3.5,11.2,8.5,13.6L3.8,11.5C3,13.4,2.5,15.5,2.5,17.7z M27.9,16.9c0-1.9-0.7-3.2-1.2-4.2
	c-0.8-1.2-1.5-2.3-1.5-3.6c0-1.4,1.1-2.7,2.5-2.7c0.1,0,0.1,0,0.2,0c-2.7-2.5-6.3-4-10.2-4c-5.3,0-10,2.7-12.7,6.8c0.4,0,0.7,0,1,0
	c1.6,0,4-0.2,4-0.2c0.8,0,0.9,1.2,0.1,1.3c0,0-0.8,0.1-1.7,0.1L13.9,27l3.3-9.9l-2.4-6.5c-0.8,0-1.6-0.1-1.6-0.1
	c-0.8,0-0.7-1.3,0.1-1.3c0,0,2.5,0.2,4,0.2c1.6,0,4-0.2,4-0.2c0.8,0,0.9,1.2,0.1,1.3c0,0-0.8,0.1-1.7,0.1l5.5,16.3l1.5-5.1
	C27.5,19.8,27.9,18.2,27.9,16.9z M17.9,19l-4.5,13.2c1.4,0.4,2.8,0.6,4.3,0.6c1.8,0,3.5-0.3,5-0.9c0-0.1-0.1-0.1-0.1-0.2L17.9,19z
	 M31,10.4c0.1,0.5,0.1,1,0.1,1.6c0,1.5-0.3,3.3-1.2,5.4l-4.6,13.4c4.5-2.6,7.5-7.5,7.5-13.1C32.8,15,32.2,12.6,31,10.4z"/>
<path class="st0" d="M0,17.7c0,9.7,7.9,17.7,17.7,17.7c9.7,0,17.7-7.9,17.7-17.7S27.4,0,17.7,0C7.9,0,0,7.9,0,17.7z M0.8,17.7
	c0-9.3,7.6-16.9,16.9-16.9c9.3,0,16.9,7.6,16.9,16.9S27,34.5,17.7,34.5C8.4,34.5,0.8,27,0.8,17.7z"/>
<path class="st0" d="M52.4,20.8l2.4-7c0.7-2,0.4-2.6-1.8-2.6v-0.7h6.4v0.7c-2.2,0-2.7,0.5-3.5,3l-3.9,11.7h-0.4L48,15.2l-3.6,10.7
	H44l-3.8-11.7c-0.8-2.5-1.4-3-3.4-3v-0.7h7.6v0.7c-2,0-2.6,0.5-1.9,2.6l2.3,7l3.5-10.3H49L52.4,20.8z"/>
<path class="st0" d="M64,25.8c-3.8,0-6.9-2.8-6.9-6.2c0-3.4,3.1-6.1,6.9-6.1c3.8,0,6.9,2.8,6.9,6.1C70.9,23,67.8,25.8,64,25.8z
	 M64,14.5c-3.2,0-4.3,2.8-4.3,5.1c0,2.3,1.1,5.1,4.3,5.1c3.2,0,4.3-2.8,4.3-5.1C68.3,17.4,67.2,14.5,64,14.5z"/>
<path class="st0" d="M105.9,24.6v0.7h-7.9v-0.7c2.3,0,2.7-0.6,2.7-4v-5.5c0-3.4-0.4-4-2.7-4v-0.7h7.1c3.5,0,5.5,1.8,5.5,4.3
	c0,2.4-2,4.2-5.5,4.2h-2v1.7C103.2,24.1,103.6,24.6,105.9,24.6z M105.2,11.7h-2v6h2c1.9,0,2.8-1.3,2.8-2.9
	C108,13.1,107.1,11.7,105.2,11.7z"/>
<path class="st0" d="M134.2,22.1l-0.2,0.6c-0.3,1.1-0.7,1.5-3.1,1.5h-0.5c-1.8,0-2.1-0.4-2.1-2.8v-1.6c2.7,0,2.9,0.2,2.9,2h0.7v-5.1
	h-0.7c0,1.8-0.2,2-2.9,2v-3.8h1.9c2.4,0,2.8,0.4,3.1,1.5l0.2,0.7h0.5l-0.2-3.2h-10.1v0.7c1.9,0,2.2,0.4,2.2,2.8v4.4
	c0,2.2-0.3,2.8-1.8,2.9c-1.4-0.2-2.4-1-3.8-2.5l-1.6-1.7c2.1-0.4,3.3-1.7,3.3-3.2c0-1.9-1.6-3.3-4.6-3.3h-6v0.7
	c1.9,0,2.2,0.4,2.2,2.8v4.4c0,2.4-0.3,2.9-2.2,2.9v0.7h6.8v-0.7c-1.9,0-2.2-0.4-2.2-2.9v-1.2h0.6l3.8,4.8h14.1l0.2-3.2H134.2z
	 M116,19.5v-4.6h1.4c1.5,0,2.2,1.1,2.2,2.3c0,1.2-0.7,2.3-2.2,2.3H116z"/>
<path class="st0" d="M141.2,25.8c-1.4,0-2.6-0.7-3.1-1.2c-0.2,0.2-0.5,0.7-0.5,1.2h-0.7V21h0.7c0.3,2.3,1.9,3.6,3.9,3.6
	c1.1,0,2-0.6,2-1.6c0-0.9-0.8-1.6-2.2-2.2l-2-0.9c-1.4-0.7-2.4-1.8-2.4-3.3c0-1.6,1.5-3.1,3.7-3.1c1.1,0,2.1,0.4,2.7,0.9
	c0.2-0.1,0.3-0.5,0.4-0.9h0.7v4h-0.7c-0.2-1.6-1.1-2.9-2.9-2.9c-1,0-1.9,0.5-1.9,1.4c0,0.9,0.7,1.4,2.4,2.1L143,19
	c1.6,0.8,2.3,2.1,2.3,3.1C145.3,24.3,143.5,25.8,141.2,25.8z"/>
<path class="st0" d="M151.7,25.8c-1.4,0-2.6-0.7-3.1-1.2c-0.2,0.2-0.5,0.7-0.5,1.2h-0.7V21h0.7c0.3,2.3,1.9,3.6,3.9,3.6
	c1.1,0,2-0.6,2-1.6c0-0.9-0.8-1.6-2.2-2.2l-2-0.9c-1.4-0.7-2.4-1.8-2.4-3.3c0-1.6,1.5-3.1,3.7-3.1c1.1,0,2.1,0.4,2.7,0.9
	c0.2-0.1,0.3-0.5,0.4-0.9h0.7v4h-0.7c-0.2-1.6-1.1-2.9-2.9-2.9c-1,0-1.9,0.5-1.9,1.4c0,0.9,0.7,1.4,2.4,2.1l1.9,0.9
	c1.6,0.8,2.3,2.1,2.3,3.1C155.9,24.3,154,25.8,151.7,25.8z"/>
</svg>
