<svg version="1.1" xmlns="http://www.w3.org/2000/svg" xmlns:xlink="http://www.w3.org/1999/xlink" x="0px" y="0px"
	 viewBox="0 0 634.3 257.4" style="enable-background:new 0 0 634.3 257.4;" xml:space="preserve">
<path d="M134.2,58.5v22.4c0,24-9.1,39.5-27.2,46.3c19.7,6.6,29.5,22.5,29.5,47.8v23.9c0,19-5.2,33.5-15.7,43.5s-25.9,15-46.3,15H0V0
	h72.2c20.4,0,35.9,5,46.3,15C129,25,134.2,39.5,134.2,58.5z M68.1,30.8H35.5V112H68c20.7,0,31-9.9,31-29.6V60
	C99.1,40.5,88.7,30.8,68.1,30.8z M101.3,197.4v-24.3c0-19.5-10.3-29.2-31-29.2H35.5v82.7h34.8C91,226.6,101.3,216.9,101.3,197.4z"/>
<path d="M287.7,0h35.9v257.4h-35.9V0z"/>
<path d="M517.4,0h116.8v31.5H553v80.1h70.7v31.5H553v83.1h81.3v31.2H517.4V0z"/>
<path d="M462.2,0h37.1l-53.7,257.4h-49.9L341.6,0h36.3c18.7,93.4,30.2,152.8,34.6,178.2s7.1,40.8,8.1,46.1
	c2.3-10.4,5.4-27.9,9.5-52.6c4-24.7,6.8-41.2,8.3-49.5L462.2,0z"/>
<path d="M228.9,152.6c21.4-8.1,32.1-26.2,32.1-54.3v-41c0-18-5.4-32-16.1-42.1S218.7,0,198.6,0h-61l27.7,77V31.2h30.2
	c19.9,0,29.9,9.5,29.9,28.5V98c0,9.9-2.3,17.2-7,22s-12.3,7.2-22.9,7.2h-12.2l47,130.2h39.3L228.9,152.6z"/>
</svg>
